<svg width="849" xmlns:xlink="http://www.w3.org/1999/xlink" height="476" xmlns="http://www.w3.org/2000/svg" viewBox="0 0 849 476"><defs/><g transform="translate(-375.00,-121.00)"><path fill-rule="nonzero" id="shape1" stroke="#101843" stroke-width="1" d="M636.0,385.5L636.0,.0L.0,.0L.0,385.5L636.0,385.5z" transform="translate(464.000000,156.000000)" fill="#ffffff"/><g id="shape2" transform="translate(722.000000,121.000000)"><text style="fill:#191919;font-family:Times New Roman;font-size:14.00pt;font-weight:bold" xml:space="preserve"><tspan y="25.4" x="41.7">DDS</tspan></text></g><g id="group3" transform="translate(537.292300,176.000000)"><g id="shape4"><path fill-rule="nonzero" stroke="#101843" stroke-width="1" d="M180.7,221.0L180.7,.0L.0,.0L.0,221.0L180.7,221.0z" fill="#ffffff"/><text style="fill:#191919;font-family:Times New Roman;font-size:14.00pt;font-weight:bold" xml:space="preserve"><tspan y="115.9" x="70.3">NCO</tspan></text></g><g id="shape5" transform="translate(23.303900,193.000000)"><text style="fill:#191919;font-family:Times New Roman;font-size:10.00pt" xml:space="preserve"><tspan y="17.7" x="54.0">CLK</tspan></text></g><g id="shape6" transform="translate(5.423900,96.500000)"><text style="fill:#191919;font-family:Times New Roman;font-size:10.00pt" xml:space="preserve"><tspan y="17.7" x="3.5">ENABLE</tspan></text></g><g id="shape7" transform="translate(5.423900,28.249600)"><text style="fill:#191919;font-family:Times New Roman;font-size:10.00pt" xml:space="preserve"><tspan y="17.7" x="3.5">FTW_IN</tspan></text></g><g id="shape8" transform="translate(5.423900,169.250000)"><text style="fill:#191919;font-family:Times New Roman;font-size:10.00pt" xml:space="preserve"><tspan y="17.7" x="3.5">RST_n</tspan></text></g><g id="shape9" transform="translate(44.373200,28.249600)"><text style="fill:#191919;font-family:Times New Roman;font-size:10.00pt" xml:space="preserve"><tspan y="17.7" x="79.9">OUT_SQ</tspan></text></g><g id="shape10" transform="translate(46.608200,169.250000)"><text style="fill:#191919;font-family:Times New Roman;font-size:10.00pt" xml:space="preserve"><tspan y="17.7" x="54.6">PHASE_OUT</tspan></text></g></g><g id="group11" transform="translate(435.000300,185.999900)"><path fill-rule="nonzero" id="shape12" stroke="#323232" stroke-width="1" d="M.0,14.4L63.8,14.4L63.8,.0L85.4,24.0L63.8,48.0L63.8,33.6L.0,33.6L.0,14.4z" transform="translate(14.915900,7.140000)" fill="#ffffff"/><path id="shape13" stroke="#303030" stroke-width="1" d="M.0,-0.0L49.1,-0.0" transform="matrix(-0.288664,0.957430,-0.957430,-0.288664,66.934805,8.250062)" fill="none"/><g id="shape14" transform="translate(4.000000,0.000000)"><text style="fill:#191919;font-family:Times New Roman;font-size:12.00pt" xml:space="preserve"><tspan y="18.3" x="36.9">32</tspan></text></g></g><g id="shape15" transform="translate(454.000000,286.500000)"><path stroke="#191919" stroke-width="1" d="M.0,.0L76.0,.0" fill="none"/><path stroke="#191919" stroke-width="1" d="M76.0,-3.0L82.0,.0L76.0,3.0L76.0,-3.0" stroke-linecap="round" fill="#191919"/></g><g id="shape16" transform="translate(385.000000,203.625000)"><text style="fill:#191919;font-family:Times New Roman;font-size:12.00pt" xml:space="preserve"><tspan y="18.3" x="3.5">FTW_IN</tspan></text></g><g id="shape17" transform="translate(387.000000,272.500000)"><text style="fill:#191919;font-family:Times New Roman;font-size:12.00pt" xml:space="preserve"><tspan y="18.3" x="3.5">ENABLE</tspan></text></g><g id="shape18" transform="translate(398.000000,346.375000)"><text style="fill:#191919;font-family:Times New Roman;font-size:12.00pt" xml:space="preserve"><tspan y="18.3" x="3.5">RST_n</tspan></text></g><g id="shape19" transform="translate(719.000000,219.000000)"><path stroke="#191919" stroke-width="1" d="M.0,.0L409.0,.0" fill="none"/><path stroke="#191919" stroke-width="1" d="M409.0,-3.0L415.0,.0L409.0,3.0L409.0,-3.0" stroke-linecap="round" fill="#191919"/></g><g id="shape20" transform="translate(1135.900000,191.000000)"><text style="fill:#191919;font-family:Times New Roman;font-size:12.00pt" xml:space="preserve"><tspan y="32.3" x="3.5">OUT_SQ</tspan></text></g><g id="group21" transform="translate(761.000000,421.000000)"><path fill-rule="nonzero" id="shape22" stroke="#0d0d0d" stroke-width="1" d="M.0,14.0C.0,6.3,6.3,.0,14.0,.0C21.7,.0,28.0,6.3,28.0,14.0C28.0,21.7,21.7,28.0,14.0,28.0C6.3,28.0,.0,21.7,.0,14.0z" fill="#ffffff"/><path id="shape23" stroke="#000000" stroke-width="1" d="M8.8,.0L8.8,17.7M.0,8.8L17.7,8.8" transform="translate(5.166000,5.166000)" fill="none"/></g><path fill-rule="nonzero" id="shape24" stroke="#101843" stroke-width="1" d="M.0,10.8L46.2,10.8L46.2,38.0L33.0,38.0L57.0,62.0L81.0,38.0L67.8,38.0L67.8,-10.8L.0,-10.8" transform="translate(718.000000,359.000000)" fill="#ffffff"/><g id="shape25" transform="translate(879.000000,327.374500)"><path fill-rule="nonzero" stroke="#101843" stroke-width="1" d="M151.0,154.6L151.0,.0L.0,.0L.0,154.6L151.0,154.6z" fill="#ffffff"/><text style="fill:#191919;font-family:Times New Roman;font-size:14.00pt;font-weight:bold" xml:space="preserve"><tspan y="82.9" x="54.5">SINE</tspan></text></g><path fill-rule="nonzero" id="shape26" stroke="#323232" stroke-width="1" d="M.0,14.4L66.4,14.4L66.4,.0L88.0,24.0L66.4,48.0L66.4,33.6L.0,33.6L.0,14.4z" transform="translate(789.000000,411.000000)" fill="#ffffff"/><g id="group27" transform="translate(392.000000,403.374900)"><path fill-rule="nonzero" id="shape28" stroke="#323232" stroke-width="1" d="M.0,14.4L292.5,14.4L292.5,.0L314.1,24.0L292.5,48.0L292.5,33.6L.0,33.6L.0,14.4z" transform="translate(54.870000,7.140000)" fill="#ffffff"/><path id="shape29" stroke="#303030" stroke-width="1" d="M.0,-0.0L43.6,-0.0" transform="matrix(-0.475839,0.879532,-0.879532,-0.475839,179.761764,11.249887)" fill="none"/><g id="shape30" transform="translate(-0.001000,0.000000)"><text style="fill:#191919;font-family:Times New Roman;font-size:12.00pt" xml:space="preserve"><tspan y="18.8" x="156.8">10</tspan></text></g></g><path id="shape31" stroke="#303030" stroke-width="1" d="M.0,-0.0L43.6,-0.0" transform="matrix(-0.475854,0.879524,-0.879524,-0.475854,756.000099,339.625568)" fill="none"/><g id="shape32" transform="translate(712.999500,326.500000)"><text style="fill:#191919;font-family:Times New Roman;font-size:12.00pt" xml:space="preserve"><tspan y="18.3" x="23.1">10</tspan></text></g><g id="shape33" transform="translate(887.450200,459.000000)"><text style="fill:#191919;font-family:Times New Roman;font-size:10.00pt" xml:space="preserve"><tspan y="17.7" x="54.0">CLK</tspan></text></g><path id="shape34" stroke="#303030" stroke-width="1" d="M.0,-0.0L43.6,-0.0" transform="matrix(-0.475854,0.879524,-0.879524,-0.475854,839.000099,416.000568)" fill="none"/><g id="shape35" transform="translate(794.999500,403.000000)"><text style="fill:#191919;font-family:Times New Roman;font-size:12.00pt" xml:space="preserve"><tspan y="18.3" x="23.1">10</tspan></text></g><g id="shape36" transform="translate(879.000000,420.066000)"><text style="fill:#191919;font-family:Times New Roman;font-size:10.00pt" xml:space="preserve"><tspan y="17.7" x="3.5">ADDR</tspan></text></g><path fill-rule="nonzero" id="shape37" stroke="#323232" stroke-width="1" d="M.0,14.4L89.4,14.4L89.4,.0L111.0,24.0L89.4,48.0L89.4,33.6L.0,33.6L.0,14.4z" transform="translate(1030.000000,410.066000)" fill="#ffffff"/><path id="shape38" stroke="#303030" stroke-width="1" d="M.0,-0.0L43.6,-0.0" transform="matrix(-0.475854,0.879524,-0.879524,-0.475854,1086.761099,416.000568)" fill="none"/><g id="shape39" transform="translate(1042.999500,403.375000)"><text style="fill:#191919;font-family:Times New Roman;font-size:12.00pt" xml:space="preserve"><tspan y="18.3" x="23.1">10</tspan></text></g><g id="shape40" transform="translate(451.000000,358.500000)"><path stroke="#191919" stroke-width="1" d="M.0,.0L77.3,.0" fill="none"/><path stroke="#191919" stroke-width="1" d="M77.3,-3.0L83.3,.0L77.3,3.0L77.3,-3.0" stroke-linecap="round" fill="#191919"/></g><g id="shape41" transform="translate(375.000000,406.000000)"><text style="fill:#191919;font-family:Times New Roman;font-size:12.00pt" xml:space="preserve"><tspan y="32.3" x="3.5">POW_IN</tspan></text></g><g id="shape42" transform="translate(628.000000,522.836000)"><path stroke="#191919" stroke-width="1" d="M.0,.0L.0,-119.8" fill="none"/><path stroke="#191919" stroke-width="1" d="M-3.0,-119.8L.0,-125.8L3.0,-119.8L-3.0,-119.8" stroke-linecap="round" fill="#191919"/></g><g id="shape43" transform="translate(955.500000,524.000000)"><path stroke="#191919" stroke-width="1" d="M.0,.0L.0,-36.0" fill="none"/><path stroke="#191919" stroke-width="1" d="M-3.0,-36.0L.0,-42.0L3.0,-36.0L-3.0,-36.0" stroke-linecap="round" fill="#191919"/></g><path id="shape44" stroke="#303030" stroke-width="1" d="M.0,.0L.0,4.9L327.5,4.9" transform="translate(628.000000,517.836280)" fill="none"/><path id="shape45" stroke="#303030" stroke-width="1" d="M.0,.0L.0,52.0L.0,52.0" transform="matrix(1.000000,0.000000,0.000000,-1.000000,809.000000,574.000000)" fill="none"/><g id="shape46" transform="translate(783.000000,569.000000)"><text style="fill:#191919;font-family:Times New Roman;font-size:12.00pt" xml:space="preserve"><tspan y="18.3" x="12.8">CLK</tspan></text></g><g id="shape47" transform="translate(1127.004900,406.000000)"><text style="fill:#191919;font-family:Times New Roman;font-size:12.00pt" xml:space="preserve"><tspan y="32.3" x="17.1">SINE_OUT</tspan></text></g><g id="shape48" transform="translate(952.999900,420.066000)"><text style="fill:#191919;font-family:Times New Roman;font-size:10.00pt" xml:space="preserve"><tspan y="17.7" x="10.7">SINE_OUT</tspan></text></g><g id="shape49" transform="translate(758.950000,452.000000)"><text style="fill:#191919;font-family:Times New Roman;font-size:10.00pt" xml:space="preserve"><tspan y="17.7" x="19.5">phase_with_offset</tspan></text></g></g></svg>